<svg width="654" height="673" viewBox="0 0 654 673" fill="none" xmlns="http://www.w3.org/2000/svg">
<g clip-path="url(#clip0_192_7547)">
<path d="M719 549.891H0V550.251H719V549.891Z" fill="#EBEBEB"/>
<path d="M249.09 559.065H215.758V559.425H249.09V559.065Z" fill="#EBEBEB"/>
<path d="M659.711 566.773H578.22V567.133H659.711V566.773Z" fill="#EBEBEB"/>
<path d="M142.923 566.773H61.4314V567.133H142.923V566.773Z" fill="#EBEBEB"/>
<path d="M648.016 594.343H616.955V594.702H648.016V594.343Z" fill="#EBEBEB"/>
<path d="M368.135 642.278C507.253 642.278 620.03 633.378 620.03 622.398C620.03 611.418 507.253 602.518 368.135 602.518C229.018 602.518 116.241 611.418 116.241 622.398C116.241 633.378 229.018 642.278 368.135 642.278Z" fill="#F5F5F5"/>
<path d="M571.808 185.259C569.731 178.397 566.986 171.756 563.608 165.432L568.717 148.712L535.725 115.72L518.989 120.847C512.687 117.431 506.048 114.678 499.179 112.63L490.981 97.1973H444.27L436.053 112.63C429.187 114.683 422.549 117.437 416.243 120.847L399.524 115.72L366.496 148.748L371.605 165.468C368.213 171.785 365.466 178.427 363.406 185.295L347.954 193.494V240.205L363.387 248.422C365.443 255.285 368.191 261.922 371.586 268.232L366.477 284.934L399.505 317.962L416.225 312.853C422.536 316.251 429.18 318.993 436.052 321.033L444.269 336.485H490.979L499.177 321.052C506.041 318.989 512.679 316.236 518.987 312.835L535.724 317.945L568.752 284.917L563.643 268.197C567.011 261.878 569.744 255.244 571.806 248.387L587.239 240.17V193.46L571.808 185.259ZM467.616 301.491C420.845 301.491 382.929 263.575 382.929 216.804C382.929 170.033 420.845 132.118 467.616 132.118C514.387 132.118 552.303 170.033 552.303 216.804C552.301 263.575 514.387 301.491 467.616 301.491Z" fill="#407BFF"/>
<path d="M467.616 143.997C427.395 144.007 394.799 176.62 394.809 216.84C394.819 257.061 427.431 289.658 467.652 289.648C507.866 289.638 540.459 257.035 540.459 216.823C540.409 176.615 507.822 144.036 467.616 143.997ZM467.616 279.948C432.752 279.959 404.482 251.703 404.472 216.84C404.462 181.976 432.717 153.706 467.58 153.696C502.444 153.686 530.714 181.94 530.724 216.804C530.724 216.81 530.724 216.816 530.724 216.822C530.684 251.663 502.456 279.9 467.616 279.948Z" fill="#407BFF"/>
<path opacity="0.4" d="M571.808 185.259C569.731 178.397 566.986 171.756 563.608 165.432L568.717 148.712L535.725 115.72L518.989 120.847C512.687 117.431 506.048 114.678 499.179 112.63L490.981 97.1973H444.27L436.053 112.63C429.187 114.683 422.549 117.437 416.243 120.847L399.524 115.72L366.496 148.748L371.605 165.468C368.213 171.785 365.466 178.427 363.406 185.295L347.954 193.494V240.205L363.387 248.422C365.443 255.285 368.191 261.922 371.586 268.232L366.477 284.934L399.505 317.962L416.225 312.853C422.536 316.251 429.18 318.993 436.052 321.033L444.269 336.485H490.979L499.177 321.052C506.041 318.989 512.679 316.236 518.987 312.835L535.724 317.945L568.752 284.917L563.643 268.197C567.011 261.878 569.744 255.244 571.806 248.387L587.239 240.17V193.46L571.808 185.259ZM467.616 301.491C420.845 301.491 382.929 263.575 382.929 216.804C382.929 170.033 420.845 132.118 467.616 132.118C514.387 132.118 552.303 170.033 552.303 216.804C552.301 263.575 514.387 301.491 467.616 301.491Z" fill="white"/>
<path opacity="0.4" d="M467.616 143.997C427.395 144.007 394.799 176.62 394.809 216.84C394.819 257.061 427.431 289.658 467.652 289.648C507.866 289.638 540.459 257.035 540.459 216.823C540.409 176.615 507.822 144.036 467.616 143.997ZM467.616 279.948C432.752 279.959 404.482 251.703 404.472 216.84C404.462 181.976 432.717 153.706 467.58 153.696C502.444 153.686 530.714 181.94 530.724 216.804C530.724 216.81 530.724 216.816 530.724 216.822C530.684 251.663 502.456 279.9 467.616 279.948Z" fill="white"/>
<path d="M277.99 277.705C276.888 274.066 275.427 270.545 273.628 267.195L276.338 258.324L258.826 240.799L249.955 243.508C246.604 241.709 243.084 240.248 239.444 239.147L235.083 231.021H210.299L205.952 239.147C202.312 240.245 198.791 241.706 195.441 243.508L186.57 240.799L169.045 258.324L171.755 267.195C169.966 270.548 168.511 274.068 167.408 277.705L159.214 282.067V306.852L167.408 311.199C168.508 314.837 169.964 318.357 171.755 321.709L169.045 330.58L186.57 348.105L195.441 345.396C198.793 347.188 202.314 348.643 205.952 349.743L210.299 357.869H235.083L239.444 349.743C243.081 348.64 246.601 347.185 249.955 345.396L258.826 348.105L276.35 330.58L273.641 321.709C275.443 318.36 276.904 314.84 278.003 311.199L286.196 306.852V282.067L277.99 277.705ZM222.691 329.659C203.244 329.659 187.478 313.892 187.478 294.445C187.478 274.997 203.244 259.231 222.691 259.231C242.139 259.231 257.905 274.996 257.905 294.445C257.905 313.894 242.139 329.659 222.691 329.659Z" fill="#263238"/>
<path d="M277.99 277.705C276.888 274.066 275.427 270.545 273.628 267.195L276.338 258.324L258.826 240.799L249.955 243.508C246.604 241.709 243.084 240.248 239.444 239.147L235.083 231.021H210.299L205.952 239.147C202.312 240.245 198.791 241.706 195.441 243.508L186.57 240.799L169.045 258.324L171.755 267.195C169.966 270.548 168.511 274.068 167.408 277.705L159.214 282.067V306.852L167.408 311.199C168.508 314.837 169.964 318.357 171.755 321.709L169.045 330.58L186.57 348.105L195.441 345.396C198.793 347.188 202.314 348.643 205.952 349.743L210.299 357.869H235.083L239.444 349.743C243.081 348.64 246.601 347.185 249.955 345.396L258.826 348.105L276.35 330.58L273.641 321.709C275.443 318.36 276.904 314.84 278.003 311.199L286.196 306.852V282.067L277.99 277.705ZM222.691 329.659C203.244 329.659 187.478 313.892 187.478 294.445C187.478 274.997 203.244 259.231 222.691 259.231C242.139 259.231 257.905 274.996 257.905 294.445C257.905 313.894 242.139 329.659 222.691 329.659Z" fill="#407BFF"/>
<path d="M222.691 282.784C216.243 282.784 211.016 288.011 211.016 294.459C211.016 300.907 216.243 306.134 222.691 306.134C229.139 306.134 234.367 300.907 234.367 294.459C234.365 288.011 229.139 282.784 222.691 282.784Z" fill="#263238"/>
<path opacity="0.4" d="M277.99 277.705C276.888 274.066 275.427 270.545 273.628 267.195L276.338 258.324L258.826 240.799L249.955 243.508C246.604 241.709 243.084 240.248 239.444 239.147L235.083 231.021H210.299L205.952 239.147C202.312 240.245 198.791 241.706 195.441 243.508L186.57 240.799L169.045 258.324L171.755 267.195C169.966 270.548 168.511 274.068 167.408 277.705L159.214 282.067V306.852L167.408 311.199C168.508 314.837 169.964 318.357 171.755 321.709L169.045 330.58L186.57 348.105L195.441 345.396C198.793 347.188 202.314 348.643 205.952 349.743L210.299 357.869H235.083L239.444 349.743C243.081 348.64 246.601 347.185 249.955 345.396L258.826 348.105L276.35 330.58L273.641 321.709C275.443 318.36 276.904 314.84 278.003 311.199L286.196 306.852V282.067L277.99 277.705ZM222.691 329.659C203.244 329.659 187.478 313.892 187.478 294.445C187.478 274.997 203.244 259.231 222.691 259.231C242.139 259.231 257.905 274.996 257.905 294.445C257.905 313.894 242.139 329.659 222.691 329.659Z" fill="white"/>
<path opacity="0.2" d="M222.691 282.784C216.243 282.784 211.016 288.011 211.016 294.459C211.016 300.907 216.243 306.134 222.691 306.134C229.139 306.134 234.367 300.907 234.367 294.459C234.365 288.011 229.139 282.784 222.691 282.784Z" fill="white"/>
<path d="M300.594 255.229L291.113 251.315L290.761 247.753C289.876 247.002 289.052 246.183 288.296 245.301L284.747 244.949L280.833 235.468L283.108 232.759C283.013 231.596 283.013 230.428 283.108 229.265L280.833 226.555L284.747 217.075L288.296 216.737C289.055 215.855 289.879 215.031 290.761 214.272L291.113 210.723L300.594 206.809L303.303 209.084C304.466 208.989 305.634 208.989 306.797 209.084L309.506 206.809L318.987 210.723L319.325 214.272C320.207 215.031 321.031 215.855 321.79 216.737L325.339 217.075L329.253 226.555L326.978 229.265C327.073 230.428 327.073 231.596 326.978 232.759L329.253 235.468L325.339 244.949L321.79 245.301C321.038 246.188 320.212 247.014 319.325 247.766L318.987 251.315L309.506 255.229L306.797 252.954C305.64 253.049 304.475 253.049 303.316 252.954L300.594 255.229ZM307.473 250.855L309.938 252.887L317.129 249.907L317.427 246.738L317.765 246.467C318.773 245.654 319.703 244.746 320.542 243.758L320.799 243.419L323.981 243.121L326.961 235.93L324.929 233.465V233.045C325.064 231.739 325.064 230.424 324.929 229.118V228.698L326.961 226.233L323.981 219.042L320.812 218.744L320.542 218.406C319.703 217.418 318.773 216.511 317.765 215.697L317.427 215.427L317.129 212.257L309.938 209.278L307.473 211.31H307.053C305.748 211.175 304.432 211.175 303.126 211.31H302.706L300.241 209.278L293.05 212.257L292.752 215.427L292.427 215.697C291.412 216.507 290.477 217.414 289.638 218.406L289.367 218.744L286.198 219.042L283.191 226.18L285.223 228.645V229.065C285.088 230.37 285.088 231.686 285.223 232.992V233.412L283.191 235.877L286.171 243.068L289.34 243.366L289.61 243.691C290.439 244.709 291.369 245.639 292.387 246.467L292.726 246.738L293.024 249.92L300.216 252.9L302.68 250.868H303.1C304.406 251.003 305.722 251.003 307.027 250.868L307.473 250.855Z" fill="#263238"/>
<path d="M309.302 241.186C303.684 243.514 297.243 240.846 294.915 235.228C292.587 229.61 295.255 223.169 300.873 220.841C306.491 218.513 312.932 221.18 315.26 226.799L315.261 226.803C317.591 232.413 314.932 238.848 309.324 241.177C309.317 241.18 309.308 241.183 309.302 241.186Z" fill="#263238"/>
<path d="M230.14 232.76C229.766 232.76 229.463 232.457 229.463 232.083V228.697C229.463 228.323 229.766 228.019 230.14 228.019C230.514 228.019 230.818 228.323 230.818 228.697V232.083C230.818 232.457 230.514 232.76 230.14 232.76Z" fill="#407BFF"/>
<path d="M230.14 222.588C229.766 222.588 229.463 222.285 229.463 221.911V215.125C229.463 214.751 229.766 214.448 230.14 214.448C230.514 214.448 230.818 214.751 230.818 215.125V221.911C230.818 222.286 230.514 222.588 230.14 222.588ZM230.14 209.018C229.766 209.018 229.463 208.714 229.463 208.34V201.556C229.463 201.182 229.766 200.879 230.14 200.879C230.514 200.879 230.818 201.182 230.818 201.556V208.34C230.818 208.714 230.514 209.018 230.14 209.018ZM230.14 195.446C229.766 195.446 229.463 195.142 229.463 194.768V187.983C229.463 187.609 229.766 187.305 230.14 187.305C230.514 187.305 230.818 187.609 230.818 187.983V194.768C230.818 195.144 230.514 195.446 230.14 195.446ZM230.14 181.828C229.766 181.828 229.463 181.572 229.463 181.198V181.105C229.463 178.776 229.847 176.492 230.603 174.314C230.727 173.961 231.114 173.775 231.465 173.897C231.818 174.02 232.005 174.406 231.882 174.759C231.174 176.793 230.816 178.927 230.816 181.103C230.818 181.478 230.514 181.828 230.14 181.828ZM234.508 169.303C234.359 169.303 234.211 169.254 234.086 169.155C233.794 168.922 233.747 168.496 233.98 168.203C235.448 166.365 237.201 164.803 239.19 163.56C239.506 163.361 239.926 163.457 240.123 163.774C240.321 164.092 240.225 164.509 239.907 164.707C238.048 165.869 236.41 167.33 235.037 169.048C234.903 169.215 234.706 169.303 234.508 169.303ZM245.794 162.25C245.484 162.25 245.203 162.035 245.133 161.719C245.052 161.354 245.282 160.993 245.648 160.911C247.116 160.586 248.63 160.42 250.147 160.42H252.544C252.918 160.42 253.222 160.724 253.222 161.098C253.222 161.472 252.918 161.775 252.544 161.775H250.147C248.729 161.775 247.314 161.929 245.943 162.234C245.892 162.245 245.842 162.25 245.794 162.25ZM361.112 161.775H354.327C353.954 161.775 353.65 161.472 353.65 161.098C353.65 160.724 353.954 160.42 354.327 160.42H361.112C361.486 160.42 361.788 160.724 361.788 161.098C361.788 161.472 361.487 161.775 361.112 161.775ZM347.542 161.775H340.756C340.382 161.775 340.078 161.472 340.078 161.098C340.078 160.724 340.382 160.42 340.756 160.42H347.542C347.915 160.42 348.219 160.724 348.219 161.098C348.219 161.472 347.915 161.775 347.542 161.775ZM333.97 161.775H327.184C326.81 161.775 326.506 161.472 326.506 161.098C326.506 160.724 326.81 160.42 327.184 160.42H333.97C334.344 160.42 334.647 160.724 334.647 161.098C334.647 161.472 334.345 161.775 333.97 161.775ZM320.399 161.775H313.615C313.241 161.775 312.937 161.472 312.937 161.098C312.937 160.724 313.241 160.42 313.615 160.42H320.399C320.773 160.42 321.077 160.724 321.077 161.098C321.077 161.472 320.773 161.775 320.399 161.775ZM306.829 161.775H300.043C299.669 161.775 299.366 161.472 299.366 161.098C299.366 160.724 299.669 160.42 300.043 160.42H306.829C307.203 160.42 307.506 160.724 307.506 161.098C307.506 161.472 307.203 161.775 306.829 161.775ZM293.257 161.775H286.471C286.097 161.775 285.794 161.472 285.794 161.098C285.794 160.724 286.097 160.42 286.471 160.42H293.257C293.631 160.42 293.934 160.724 293.934 161.098C293.934 161.472 293.631 161.775 293.257 161.775ZM279.685 161.775H272.901C272.527 161.775 272.223 161.472 272.223 161.098C272.223 160.724 272.527 160.42 272.901 160.42H279.685C280.059 160.42 280.362 160.724 280.362 161.098C280.362 161.472 280.06 161.775 279.685 161.775ZM266.115 161.775H259.329C258.955 161.775 258.652 161.472 258.652 161.098C258.652 160.724 258.955 160.42 259.329 160.42H266.115C266.489 160.42 266.792 160.724 266.792 161.098C266.792 161.472 266.489 161.775 266.115 161.775Z" fill="#407BFF"/>
<path d="M371.305 161.775H367.918C367.544 161.775 367.241 161.472 367.241 161.098C367.241 160.724 367.544 160.42 367.918 160.42H371.305C371.678 160.42 371.982 160.724 371.982 161.098C371.982 161.472 371.678 161.775 371.305 161.775Z" fill="#407BFF"/>
<path d="M229.722 620.875H236.816L236.816 399.324H229.722L229.722 620.875Z" fill="#263238"/>
<path d="M404.737 498.707H521.814C524.759 498.707 527.146 496.32 527.146 493.375V487.808C527.146 484.863 524.759 482.476 521.814 482.476H404.737V498.707Z" fill="#407BFF"/>
<path d="M517.302 622.109L508.818 488.01" stroke="#407BFF" stroke-width="2.8255" stroke-miterlimit="10" stroke-linecap="round" stroke-linejoin="round"/>
<path d="M484.815 628.758L476.332 494.658" stroke="#407BFF" stroke-width="2.8255" stroke-miterlimit="10" stroke-linecap="round" stroke-linejoin="round"/>
<path d="M399.679 622.109L408.163 488.01" stroke="#407BFF" stroke-width="2.8255" stroke-miterlimit="10" stroke-linecap="round" stroke-linejoin="round"/>
<path d="M432.167 628.758L440.649 494.658" stroke="#407BFF" stroke-width="2.8255" stroke-miterlimit="10" stroke-linecap="round" stroke-linejoin="round"/>
<path d="M415.126 488.01H532.204C535.149 488.01 537.536 485.623 537.536 482.678V477.111C537.536 474.166 535.149 471.779 532.204 471.779H415.126V488.01Z" fill="#407BFF"/>
<path opacity="0.2" d="M415.126 488.01H532.204C535.149 488.01 537.536 485.623 537.536 482.678V477.111C537.536 474.166 535.149 471.779 532.204 471.779H415.126V488.01Z" fill="black"/>
<path d="M414.284 626.167H421.378V404.616H414.284V626.167Z" fill="#263238"/>
<path d="M438.448 421.477C438.448 421.477 357.415 424.521 343.951 457.06C343.951 457.06 345.82 553.929 356.667 585.721L379.856 583.102L376.148 488.896L459.97 421.477H438.448Z" fill="#263238"/>
<path opacity="0.2" d="M438.448 421.477C438.448 421.477 357.415 424.521 343.951 457.06C343.951 457.06 345.82 553.929 356.667 585.721L379.856 583.102L376.148 488.896L459.97 421.477H438.448Z" fill="black"/>
<path d="M376.015 607.338H361.543L361.348 597.695L361.201 590.134L375.341 590.992L375.623 597.695L376.015 607.338Z" fill="#B55B52"/>
<path opacity="0.2" d="M375.623 597.695H361.348L361.201 590.134L375.341 590.992L375.623 597.695Z" fill="black"/>
<path d="M382.489 593.204L351.495 594.142L345.836 582.636L381.638 582.305L382.489 593.204Z" fill="#407BFF"/>
<path d="M357.835 609.521C357.835 609.521 358.574 601.028 355.625 602.207C352.646 603.398 355.964 607.735 357.835 609.521Z" stroke="#407BFF" stroke-width="0.9418" stroke-miterlimit="10"/>
<path d="M357.835 609.521C357.835 609.521 351.457 605.07 349.841 607.338C348.226 609.606 357.835 609.521 357.835 609.521Z" stroke="#407BFF" stroke-width="0.9418" stroke-miterlimit="10"/>
<path d="M362.881 605.384L374.324 605.505C375.991 605.522 377.382 606.834 377.515 608.512L378.321 618.687C378.47 620.574 376.989 622.155 375.117 622.101C368.889 621.921 356.073 621.583 351.535 621.715C345.448 621.892 336.811 621.987 335.576 619.679C334.341 617.371 336.307 615.854 336.307 615.854C336.307 615.854 352.879 614.317 360.511 606.434C361.141 605.784 361.973 605.374 362.881 605.384Z" fill="#263238"/>
<path d="M511.156 421.477C511.156 421.477 512.684 440.363 512.111 454.959C511.449 471.781 475.23 486.608 422.495 478.006C422.495 478.006 418.38 506.431 403.793 532.611C389.206 558.793 366.392 597.689 366.392 597.689L343.952 583.102C343.952 583.102 373.499 501.194 379.11 478.378C384.72 455.563 386.964 444.718 403.047 437.611C419.13 430.504 454.287 421.477 454.287 421.477H511.156Z" fill="#263238"/>
<path d="M357.835 593.401L355.176 597.494L349.319 606.513L338.083 599.957L343.975 590.816L346.255 587.275L357.835 593.401Z" fill="#B55B52"/>
<path opacity="0.2" d="M357.835 593.401L355.176 597.494L343.975 590.816L346.255 587.275L357.835 593.401Z" fill="black"/>
<path d="M372.255 590.134L342.851 572.521L338.083 584.273L366.006 600.39L372.255 590.134Z" fill="#407BFF"/>
<path d="M330.402 600.39C330.402 600.39 332.545 593.024 330.135 592.89C327.723 592.757 330.402 600.39 330.402 600.39Z" stroke="#407BFF" stroke-width="0.9418" stroke-miterlimit="10"/>
<path d="M329.83 600.122C329.83 600.122 326.518 592.127 323.841 593.916C321.163 595.703 329.83 600.122 329.83 600.122Z" stroke="#407BFF" stroke-width="0.9418" stroke-miterlimit="10"/>
<path d="M339.539 599.16L349.348 604.948C350.776 605.791 351.312 607.593 350.577 609.078L346.121 618.09C345.295 619.761 343.216 620.363 341.629 619.387C336.35 616.142 325.468 609.488 321.487 607.345C316.147 604.471 308.651 600.26 308.754 597.693C308.858 595.127 311.321 594.819 311.321 594.819C311.321 594.819 326.392 601.75 336.964 598.871C337.837 598.634 338.761 598.701 339.539 599.16Z" fill="#263238"/>
<path d="M420.12 338.973C420.12 338.973 417.108 371.955 418.32 380.443C418.32 380.443 386.793 385.05 370.787 382.868L360.116 380.2L346.777 383.454L350.415 394.023H361.085C361.085 394.023 368.846 396.206 372.241 394.023C372.241 394.023 398.917 399.358 414.68 397.662C430.444 395.963 435.326 389.97 436.022 378.017C436.69 366.532 444.273 340.891 438.209 335.07L420.12 338.973Z" fill="#B55B52"/>
<path d="M528.374 342.671C528.374 342.671 516.285 311.961 504.518 305.021C492.752 298.083 438.294 311.357 438.294 311.357C438.294 311.357 414.919 318.881 413.58 355.39L435.051 364.493L438.446 421.476H511.154L510.763 347.66L528.374 342.671Z" fill="#3367F6"/>
<path d="M439.286 251.157C439.286 251.157 432.085 250.26 430.135 244.86C428.185 239.46 435.681 242.19 435.053 232.441C434.424 222.695 445.62 220.355 453.765 224.643C461.91 228.931 474.777 224.253 479.651 230.102C484.524 235.95 482.38 241.409 482.38 241.409C482.38 241.409 496.352 257.205 478.644 268.022C460.937 278.84 439.286 251.157 439.286 251.157Z" fill="#263238"/>
<path d="M481.563 303.717C473.795 315.553 466.811 316.778 457.436 316.767C446.936 316.73 450.452 309.292 450.452 309.292C454.851 307.099 458.061 304.734 458.564 299.318C458.662 298.228 458.686 297.161 458.637 296.158C458.466 292.127 457.388 289.002 457.388 289.002C442.5 290.349 437.256 283.083 435.393 269.385C433.543 255.686 439.792 244.867 439.792 244.867C448.419 255.012 464.654 247.06 464.654 247.06C460.095 260.256 471.259 264.986 471.259 264.986C475.646 262.278 479.027 264.644 478.696 269.887C478.352 275.131 473.795 276.491 473.795 276.491C472.95 299.822 481.563 303.717 481.563 303.717Z" fill="#B55B52"/>
<path d="M443.898 274.743C443.655 274.743 443.452 274.553 443.439 274.307C443.425 274.054 443.62 273.837 443.872 273.824C449.07 273.544 451.102 271.049 451.122 271.024C451.279 270.826 451.567 270.791 451.766 270.947C451.966 271.103 452.002 271.389 451.847 271.589C451.758 271.706 449.571 274.437 443.924 274.741C443.915 274.743 443.906 274.743 443.898 274.743Z" fill="#263238"/>
<path d="M443.898 269.077L443.055 260.35L439.286 268.285C439.286 268.285 441.269 270.07 443.898 269.077Z" fill="#A02724"/>
<path d="M449.7 260.35C449.7 261.446 450.211 262.333 450.84 262.333C451.47 262.333 451.981 261.444 451.981 260.35C451.981 259.254 451.47 258.367 450.84 258.367C450.211 258.366 449.7 259.254 449.7 260.35Z" fill="#263238"/>
<path d="M437.005 260.35C437.005 261.446 437.516 262.333 438.146 262.333C438.776 262.333 439.286 261.444 439.286 260.35C439.286 259.254 438.776 258.367 438.146 258.367C437.516 258.366 437.005 259.254 437.005 260.35Z" fill="#263238"/>
<path d="M457.238 255.904C457.047 255.904 456.857 255.813 456.738 255.645C456.66 255.537 454.786 253.005 450.405 253.81C450.075 253.873 449.753 253.652 449.691 253.318C449.63 252.986 449.851 252.667 450.185 252.605C455.363 251.651 457.645 254.804 457.738 254.939C457.934 255.216 457.865 255.597 457.589 255.791C457.481 255.869 457.36 255.904 457.238 255.904Z" fill="#263238"/>
<path d="M436.212 255.159C436.117 255.159 436.023 255.137 435.933 255.091C435.631 254.937 435.511 254.568 435.665 254.267C437.037 251.578 440.321 251.985 440.458 252.007C440.793 252.053 441.027 252.359 440.983 252.694C440.938 253.029 440.628 253.268 440.296 253.222C440.192 253.21 437.73 252.914 436.757 254.825C436.649 255.037 436.433 255.159 436.212 255.159Z" fill="#263238"/>
<path d="M435.242 267.157C431.489 267.157 428.435 264.103 428.435 260.35C428.435 256.597 431.489 253.542 435.242 253.542C438.995 253.542 442.051 256.597 442.051 260.35C442.051 264.103 438.997 267.157 435.242 267.157ZM435.242 254.461C431.997 254.461 429.354 257.103 429.354 260.35C429.354 263.597 431.995 266.239 435.242 266.239C438.489 266.239 441.132 263.597 441.132 260.35C441.132 257.103 438.491 254.461 435.242 254.461Z" fill="white"/>
<path d="M451.485 267.157C447.731 267.157 444.677 264.103 444.677 260.35C444.677 256.597 447.731 253.542 451.485 253.542C455.238 253.542 458.294 256.597 458.294 260.35C458.294 264.103 455.238 267.157 451.485 267.157ZM451.485 254.461C448.238 254.461 445.596 257.103 445.596 260.35C445.596 263.597 448.238 266.239 451.485 266.239C454.732 266.239 457.375 263.597 457.375 260.35C457.375 257.103 454.732 254.461 451.485 254.461Z" fill="white"/>
<path d="M442.051 260.35H444.677" stroke="white" stroke-width="0.9418" stroke-miterlimit="10"/>
<path d="M457.851 261.595L470.597 264.658" stroke="white" stroke-width="0.9418" stroke-miterlimit="10" stroke-linecap="round" stroke-linejoin="round"/>
<path opacity="0.2" d="M462.314 287.653C462.314 287.653 460.991 292.689 458.639 296.158C458.468 292.127 457.389 289.002 457.389 289.002L462.314 287.653Z" fill="black"/>
<path opacity="0.2" d="M435.053 364.493L435.051 355.39L431.374 362.933L435.053 364.493Z" fill="black"/>
<path opacity="0.2" d="M495.063 352.342L492.258 335.956L491.465 353.784L495.063 352.342Z" fill="black"/>
<path d="M515.125 386.708C514.941 398.68 509.55 404.659 493.779 406.35C478.021 408.053 451.347 402.711 451.347 402.711C447.953 404.904 440.185 402.711 440.185 402.711H429.512L425.885 392.148L439.217 388.889L449.89 391.56C465.892 393.742 497.42 389.134 497.42 389.134C496.513 382.776 495.493 362.035 495.065 352.343L513.869 346.781C515.719 359.425 515.284 376.378 515.125 386.708Z" fill="#B55B52"/>
<path d="M236.934 324.148L249.671 389.017C250.241 391.918 252.785 394.011 255.741 394.011H363.492C367.343 394.011 370.258 390.531 369.582 386.739L358.02 321.871C357.494 318.92 354.927 316.77 351.93 316.77H243.003C239.109 316.77 236.183 320.326 236.934 324.148Z" fill="#3367F6"/>
<path opacity="0.2" d="M353.567 316.77L367.028 394.011C369.037 394.011 370.557 392.196 370.204 390.219L357.587 319.432C357.313 317.893 355.975 316.771 354.411 316.771L353.567 316.77Z" fill="black"/>
<path d="M250.938 400.204H416.646C416.646 398.497 415.946 396.943 414.83 395.827C413.714 394.711 412.16 394.011 410.453 394.011H257.153C253.718 394.011 250.938 396.79 250.938 400.204Z" fill="#407BFF"/>
<path opacity="0.2" d="M361.906 400.204H416.646C416.646 398.497 415.946 396.943 414.83 395.827C413.714 394.711 412.16 394.011 410.453 394.011H368.122C364.685 394.011 361.906 396.79 361.906 400.204Z" fill="black"/>
<path opacity="0.4" d="M290.089 357.802C291.248 365.876 296.829 371.755 302.554 370.932C308.279 370.11 311.98 362.9 310.821 354.825C309.662 346.752 304.082 340.872 298.358 341.695C292.63 342.517 288.93 349.729 290.089 357.802Z" fill="#E6ECFE"/>
<path opacity="0.2" d="M250.938 400.204H416.646C416.646 398.497 415.946 396.943 414.83 395.827C413.714 394.711 412.16 394.011 410.453 394.011H257.153C253.718 394.011 250.938 396.79 250.938 400.204Z" fill="black"/>
<path d="M183.062 408.238H469.221C469.221 402.581 464.635 397.995 458.978 397.995H193.305C187.648 397.995 183.062 402.581 183.062 408.238Z" fill="#263238"/>
</g>
<defs>
<clipPath id="clip0_192_7547">
<rect width="703" height="687" fill="white"/>
</clipPath>
</defs>
</svg>
